# xmcd
# Track frame offsets:
# 150
# 11464
# 24018
# 40548
# 53628
# 68544
# 83495
# 97872
# 112197
# 127392
# 143233
# 161777
# 177134
# 196114
# 210181
# 228212
# 243901
# 262452
# 277265
# 291038
#
# Disc length: 4094 seconds
# Revision: 1
# Processed by: cddbd v1.5.2PL0 Copyright (c) Steve Scherf et al.
# Submitted via: VisiTrax 2.11.3.279 - For more info visit www.synapsa.com
#
DISCID=0c0ffc14
DTITLE=Slim Dusty - Pubs, Trucks and Plains Disc 2 - Trucks
DYEAR=2007
DGENRE=Australian Country
TTITLE0=No Good Truckin' Man
TTITLE1=Bent-Axle Bob
TTITLE2=Under The Spell Of Highway One
TTITLE3=Pushin' Time
TTITLE4=Long Black Road
TTITLE5=Names Upon The Wall
TTITLE6=Gotta Keep Movin'
TTITLE7=Truckin's In My Blood
TTITLE8=Dieseline Dreams
TTITLE9=The Lady Is A Truckie
TTITLE10=Rolling Down The Road
TTITLE11=Kelly's Offsider
TTITLE12=Star Trucker
TTITLE13=Highway One
TTITLE14=Something In The Pilliga
TTITLE15=Trucks, Tarps and Trailers
TTITLE16=Sally (The Girl On Channel 8)
TTITLE17=Mechanised Swaggie
TTITLE18=Lights On The Hill
TTITLE19=One Trucker's Epitaph
EXTD=2007 EMI Music Pty Limited Australia
EXTT0=
EXTT1=
EXTT2=
EXTT3=
EXTT4=
EXTT5=
EXTT6=
EXTT7=
EXTT8=
EXTT9=
EXTT10=
EXTT11=
EXTT12=
EXTT13=
EXTT14=
EXTT15=
EXTT16=
EXTT17=
EXTT18=
EXTT19=
PLAYORDER=
